<svg width="40" height="40" viewBox="0 0 40 40" fill="none" xmlns="http://www.w3.org/2000/svg">
<rect width="40" height="40" rx="4" fill="#F9F9F9"/>
<path d="M20 30C22.7614 30 25.2614 28.8807 27.0711 27.0711C28.8807 25.2614 30 22.7614 30 20C30 17.2386 28.8807 14.7386 27.0711 12.9289C25.2614 11.1193 22.7614 10 20 10C17.2386 10 14.7386 11.1193 12.9289 12.9289C11.1193 14.7386 10 17.2386 10 20C10 22.7614 11.1193 25.2614 12.9289 27.0711C14.7386 28.8807 17.2386 30 20 30Z" fill="#F9F9F9" stroke="#043E5F" stroke-width="2" stroke-linejoin="round"/>
<path d="M20 22.3125V20.3125C21.6568 20.3125 23 18.9693 23 17.3125C23 15.6557 21.6568 14.3125 20 14.3125C18.3432 14.3125 17 15.6557 17 17.3125" fill="#F9F9F9"/>
<path d="M20 22.3125V20.3125C21.6568 20.3125 23 18.9693 23 17.3125C23 15.6557 21.6568 14.3125 20 14.3125C18.3432 14.3125 17 15.6557 17 17.3125" stroke="#043E5F" stroke-width="2" stroke-linecap="round" stroke-linejoin="round"/>
<path fill-rule="evenodd" clip-rule="evenodd" d="M20 26.8125C20.6904 26.8125 21.25 26.2529 21.25 25.5625C21.25 24.8722 20.6904 24.3125 20 24.3125C19.3097 24.3125 18.75 24.8722 18.75 25.5625C18.75 26.2529 19.3097 26.8125 20 26.8125Z" fill="#043E5F"/>
</svg>
